# xmcd
# Track frame offsets:
# 150
# 17899
# 30128
# 46075
# 60460
# 78339
# 92918
# 105548
#
# Disc length: 1600 seconds
# Revision: 0
# Processed by: cddbd v1.5.2PL0 Copyright (c) Steve Scherf et al.
# Submitted via: VisiTrax 2.11.2.271 - For more info visit www.synapsa.com
#
DISCID=50063e08
DTITLE=Various Artist - Hillcrest Volume 45
DYEAR=1900
DGENRE=Country
TTITLE0=Neil Sammut - Let's Have A Party
TTITLE1=Peggy Rains - It's A Good Day
TTITLE2=Gerard James - A Single Dance
TTITLE3=Kathy Cramer - Let Me Teach You The Ropes
TTITLE4=Rollie Stevens - That Olf Car Of Mine
TTITLE5=Michelle Nannini - The Last Thing I Do
TTITLE6=Larry Ford - This Morning At Nine
TTITLE7=Wade Brisco - You and Me
EXTD=
EXTT0=
EXTT1=
EXTT2=
EXTT3=
EXTT4=
EXTT5=
EXTT6=
EXTT7=
PLAYORDER=
